<svg width="166" height="38" viewBox="0 0 166 38" fill="none" xmlns="http://www.w3.org/2000/svg">
<g clip-path="url(#clip0_128_2)">
<path d="M58.6509 18.3916V20.8611H51.2773V28.3431H48.7695V10.3936H60.0358V12.863H51.2773V18.3916H58.6509Z" fill="white"/>
<path d="M65.9882 10.3936V28.3431H63.4805V10.3936H65.9882Z" fill="white"/>
<path d="M68.8711 15.1855H70.3308C70.518 15.1855 70.7051 15.2224 70.8923 15.2593C71.0794 15.2961 71.2666 15.4067 71.4163 15.4804C71.566 15.591 71.7157 15.7016 71.828 15.849C71.9403 15.9964 72.0526 16.1438 72.1275 16.3281L75.0844 22.9993C75.3464 23.589 75.4961 24.1419 75.4961 24.621C75.4961 24.7316 75.4961 24.8422 75.4587 24.9528C75.4587 25.0633 75.4213 25.1739 75.3838 25.2476C75.4961 24.9528 75.8704 24.1419 76.4693 22.7782C77.0682 21.4145 77.9291 19.4979 79.0519 16.9916L79.3514 16.3281C79.5011 15.9596 79.7257 15.7016 80.0625 15.4804C80.3994 15.2593 80.7363 15.1855 81.148 15.1855H82.6077L75.1593 32.0294C75.0095 32.398 74.785 32.6928 74.4481 32.914C74.1112 33.1351 73.7369 33.2457 73.3252 33.2457H71.8655L74.3732 27.6065L68.8711 15.1855Z" fill="white"/>
<path d="M83.6543 12.863V10.3936H97.5032V12.863H91.8514V28.3431H89.3436V12.863H83.6543Z" fill="white"/>
<path d="M97.2424 17.1016C97.3172 16.991 97.4295 16.8436 97.5418 16.733C97.6541 16.6225 97.7664 16.5119 97.9161 16.3645C98.0658 16.217 98.253 16.1064 98.4401 15.959C98.9641 15.6273 99.4882 15.4062 100.087 15.2219C100.686 15.0376 101.322 14.9639 102.033 14.9639C102.745 14.9639 103.381 15.0376 103.942 15.2219C104.504 15.4062 104.953 15.6273 105.327 15.959C105.701 16.2539 106.038 16.6593 106.263 17.0647C106.487 17.507 106.712 17.9493 106.824 18.4653C106.937 18.9813 107.049 19.4973 107.124 20.0502C107.161 20.6031 107.199 21.1559 107.199 21.7456V28.3063H105.177C105.065 28.1588 104.99 28.0114 104.915 27.8271C104.841 27.6428 104.803 27.4585 104.803 27.2742V26.9425C104.579 27.1637 104.279 27.3848 103.942 27.5691C103.605 27.7534 103.269 27.9377 102.894 28.0483C102.52 28.1957 102.183 28.3063 101.809 28.38C101.434 28.4537 101.098 28.4905 100.798 28.4905C100.124 28.4905 99.5256 28.38 98.9641 28.1957C98.4027 28.0114 97.9161 27.7534 97.5418 27.3848C97.1301 27.0531 96.8307 26.6108 96.6435 26.1317C96.4564 25.6525 96.3066 25.0997 96.3066 24.5099C96.3066 23.8465 96.4189 23.2568 96.6809 22.7408C96.9429 22.2248 97.3172 21.7825 97.8038 21.4139C98.2904 21.0453 98.9267 20.7505 99.7127 20.5662C100.499 20.3819 101.397 20.2713 102.445 20.2713C102.745 20.2713 103.007 20.2713 103.269 20.3082C103.531 20.3082 103.793 20.3451 103.98 20.3451C104.204 20.3451 104.354 20.3819 104.504 20.3819C104.653 20.3819 104.728 20.4188 104.766 20.4188C104.728 19.7922 104.653 19.2762 104.466 18.9076C104.317 18.5022 104.092 18.2073 103.867 17.9493C103.605 17.7282 103.343 17.5439 103.044 17.4702C102.745 17.3965 102.408 17.3227 102.071 17.3227C101.659 17.3227 101.322 17.3596 101.098 17.4333C100.873 17.507 100.648 17.5807 100.461 17.6545C100.274 17.7282 100.087 17.8387 99.9373 17.8756C99.7502 17.9493 99.5256 17.9862 99.2262 17.9862C99.0016 17.9862 98.777 17.9493 98.5898 17.8756C98.4027 17.8019 98.1781 17.6913 97.991 17.5439L97.2424 17.1016ZM100.798 26.1317C101.098 26.1317 101.397 26.0948 101.771 26.058C102.108 25.9842 102.445 25.9105 102.819 25.8C103.156 25.6894 103.531 25.5788 103.867 25.4314C104.204 25.2839 104.541 25.1365 104.841 24.9522V22.7408C104.803 22.7408 104.728 22.7408 104.579 22.7039C104.429 22.7039 104.242 22.7039 104.017 22.6671C103.793 22.6671 103.568 22.6671 103.306 22.6302C103.044 22.6302 102.782 22.6302 102.483 22.6302C101.959 22.6302 101.472 22.6671 101.023 22.7408C100.574 22.8145 100.162 22.9251 99.825 23.0725C99.4882 23.2199 99.2262 23.4042 99.039 23.6622C98.8519 23.8834 98.7396 24.1782 98.7396 24.5468C98.7396 24.8417 98.777 25.0997 98.8893 25.2839C99.0016 25.4682 99.1513 25.6525 99.3384 25.7631C99.5256 25.8737 99.7502 25.9842 100.012 26.0211C100.237 26.0948 100.499 26.1317 100.798 26.1317Z" fill="white"/>
<path d="M110.867 11.868C110.867 11.6469 110.905 11.4258 111.017 11.2046C111.092 10.9835 111.241 10.836 111.391 10.6517C111.541 10.5043 111.728 10.3937 111.953 10.2832C112.177 10.2095 112.402 10.1357 112.626 10.1357C112.851 10.1357 113.076 10.1726 113.3 10.2832C113.525 10.3569 113.674 10.5043 113.862 10.6517C114.011 10.7992 114.124 10.9835 114.236 11.2046C114.311 11.4258 114.386 11.6469 114.386 11.868C114.386 12.0892 114.348 12.3103 114.236 12.5315C114.161 12.7526 114.011 12.9 113.862 13.0843C113.712 13.2318 113.525 13.3423 113.3 13.4529C113.076 13.5266 112.851 13.6003 112.626 13.6003C112.402 13.6003 112.177 13.5635 111.953 13.4529C111.728 13.3423 111.578 13.2318 111.391 13.0843C111.241 12.9369 111.129 12.7526 111.017 12.5315C110.905 12.3103 110.867 12.0892 110.867 11.868ZM113.824 15.1852V28.3433H111.316V15.1852H113.824Z" fill="white"/>
<path d="M127.709 20.6773C127.709 20.6773 126.549 23.2573 124.303 28.3436H121.833L116.031 15.1855H117.491C117.865 15.1855 118.24 15.2961 118.576 15.4804C118.913 15.7015 119.138 15.9595 119.288 16.3281L122.843 24.363C122.918 24.5473 122.956 24.7316 122.993 24.9159C123.031 25.137 123.031 25.3582 123.068 25.5793C123.068 25.1002 123.18 24.6947 123.293 24.363L126.848 16.2912C126.998 15.9227 127.26 15.6647 127.56 15.4435C127.896 15.2224 128.233 15.1118 128.645 15.1118H130.105L128.645 18.3921L131.265 24.2893C131.34 24.4367 131.377 24.621 131.415 24.8053C131.452 24.9896 131.49 25.1739 131.49 25.395C131.527 24.9527 131.602 24.5842 131.714 24.2893L135.27 16.2175C135.42 15.8489 135.682 15.5909 135.981 15.3698C136.281 15.1487 136.655 15.0381 137.067 15.0381H138.526L132.687 28.1962H130.217L127.859 22.8519C127.597 22.2621 127.447 21.7461 127.447 21.267C127.56 21.1564 127.597 20.8984 127.709 20.6773Z" fill="white"/>
<path d="M140.772 17.1016C140.847 16.991 140.959 16.8436 141.071 16.733C141.184 16.6225 141.296 16.5119 141.446 16.3645C141.595 16.217 141.783 16.1064 141.97 15.959C142.494 15.6273 143.018 15.4062 143.617 15.2219C144.216 15.0376 144.852 14.9639 145.563 14.9639C146.274 14.9639 146.91 15.0376 147.472 15.2219C148.033 15.4062 148.482 15.6273 148.857 15.959C149.231 16.2539 149.568 16.6593 149.793 17.0647C150.017 17.507 150.242 17.9493 150.354 18.4653C150.466 18.9813 150.579 19.4973 150.653 20.0502C150.691 20.6031 150.728 21.1559 150.728 21.7456V28.3063H148.67C148.557 28.1588 148.482 28.0114 148.408 27.8271C148.333 27.6428 148.295 27.4585 148.295 27.2742V26.9425C148.071 27.1637 147.771 27.3848 147.434 27.5691C147.098 27.7534 146.761 27.9377 146.386 28.0483C146.012 28.1957 145.675 28.3063 145.301 28.38C144.927 28.4537 144.59 28.4905 144.29 28.4905C143.617 28.4905 143.018 28.38 142.456 28.1957C141.895 28.0114 141.408 27.7534 141.034 27.3848C140.622 27.0531 140.323 26.6108 140.136 26.1317C139.949 25.6525 139.799 25.0997 139.799 24.5099C139.799 23.8465 139.911 23.2568 140.173 22.7408C140.435 22.2248 140.809 21.7825 141.296 21.4139C141.783 21.0453 142.419 20.7505 143.205 20.5662C143.991 20.3819 144.889 20.2713 145.937 20.2713C146.237 20.2713 146.499 20.2713 146.761 20.3082C147.023 20.3082 147.285 20.3451 147.472 20.3451C147.696 20.3451 147.846 20.3819 147.996 20.3819C148.146 20.3819 148.22 20.4188 148.258 20.4188C148.22 19.7922 148.146 19.2762 147.958 18.9076C147.809 18.5022 147.584 18.2073 147.36 17.9493C147.098 17.7282 146.836 17.5439 146.536 17.4702C146.237 17.3965 145.9 17.3227 145.563 17.3227C145.151 17.3227 144.814 17.3596 144.59 17.4333C144.365 17.507 144.141 17.5807 143.954 17.6545C143.766 17.7282 143.579 17.8387 143.429 17.8756C143.242 17.9493 143.018 17.9862 142.718 17.9862C142.494 17.9862 142.269 17.9493 142.082 17.8756C141.895 17.8019 141.67 17.6913 141.483 17.5439L140.772 17.1016ZM144.328 26.1317C144.627 26.1317 144.927 26.0948 145.301 26.058C145.638 25.9842 145.975 25.9105 146.349 25.8C146.686 25.6894 147.06 25.5788 147.397 25.4314C147.734 25.2839 148.071 25.1365 148.37 24.9522V22.7408C148.333 22.7408 148.258 22.7408 148.108 22.7039C147.958 22.7039 147.771 22.7039 147.547 22.6671C147.322 22.6671 147.098 22.6671 146.836 22.6302C146.574 22.6302 146.312 22.6302 146.012 22.6302C145.488 22.6302 145.002 22.6671 144.552 22.7408C144.103 22.8145 143.691 22.9251 143.355 23.0725C143.018 23.2199 142.756 23.4042 142.569 23.6622C142.381 23.8834 142.269 24.1782 142.269 24.5468C142.269 24.8417 142.307 25.0997 142.419 25.2839C142.531 25.4682 142.681 25.6525 142.868 25.7631C143.055 25.8737 143.28 25.9842 143.542 26.0211C143.766 26.0948 144.066 26.1317 144.328 26.1317Z" fill="white"/>
<path d="M156.755 15.1853C156.83 15.2958 156.905 15.4064 156.942 15.4801C156.979 15.5538 157.017 15.6644 157.092 15.8118C157.129 15.9593 157.167 16.0698 157.167 16.2173V16.7701C157.316 16.4753 157.541 16.2173 157.803 15.9961C158.065 15.775 158.364 15.5907 158.701 15.4433C159.038 15.2958 159.412 15.1853 159.787 15.1115C160.161 15.0378 160.573 15.001 160.984 15.001C161.733 15.001 162.407 15.1484 163.043 15.4064C163.679 15.6644 164.203 16.0698 164.615 16.549C165.064 17.065 165.401 17.6547 165.626 18.3919C165.85 19.129 166 19.9399 166 20.8613V28.3434H163.492V20.8613C163.492 19.7556 163.305 18.9079 162.893 18.2813C162.482 17.6547 161.845 17.3599 161.022 17.3599C160.498 17.3599 160.049 17.4336 159.562 17.5441C159.076 17.6547 158.701 17.8021 158.364 17.9864C158.028 18.1707 157.728 18.3919 157.503 18.6867C157.279 18.9447 157.167 19.2396 157.129 19.5344V28.3434H154.584V15.1853H156.755Z" fill="white"/>
<path d="M41.7337 15.0378C41.6962 14.3007 41.0974 13.0475 39.3756 11.9787C37.6913 10.9098 37.7661 9.1775 35.8198 8.36663C34.7718 7.92435 31.6277 8.95635 28.5585 11.3152C29.2322 9.65664 29.6439 7.9612 29.5316 6.45005C29.4942 6.04462 29.4193 5.67604 29.2696 5.30747C27.9596 0.663433 25.6764 1.25315 21.372 0.14743C21.0351 0.0368574 20.6983 0 20.3614 0C15.4581 0.258002 12.2392 6.15519 13.2872 9.50921C13.5492 10.3938 14.1107 11.3889 14.7844 12.4578C12.9503 10.7992 11.2286 9.87779 8.90796 9.84093C4.37898 9.73036 5.98845 13.3424 1.72148 13.969C0.972894 14.0795 0.336592 14.5955 0.149444 15.3327C-0.674005 18.2444 2.35779 24.5102 9.28225 24.805C7.22363 26.1688 5.95102 27.5693 5.91359 28.4171C5.76388 30.5179 7.37334 31.2182 7.56049 33.2085C7.74764 35.1988 8.60852 36.3046 9.28225 36.6731C10.48 37.3366 14.8593 39.4374 18.7519 36.3046C20.062 35.0883 21.0726 33.3191 21.7463 31.3657C22.158 32.9137 22.682 34.2774 23.3183 35.2357C25.2647 38.1843 31.9271 39.5112 35.2584 35.9728C35.4829 35.7148 35.6701 35.4568 35.8198 35.1251C37.7287 31.1445 39.6376 29.8176 36.8678 25.837C36.6807 25.5053 36.4561 25.1736 36.1567 24.9156C35.6701 24.4733 35.1461 24.0679 34.5098 23.7362C35.4081 23.6625 36.2689 23.515 37.055 23.2202C41.6588 21.193 41.7711 16.4016 41.7337 15.0378Z" fill="#EF1715"/>
<path d="M21.8582 23.9573C24.0494 23.9573 25.8257 22.2082 25.8257 20.0504C25.8257 17.8927 24.0494 16.1436 21.8582 16.1436C19.6669 16.1436 17.8906 17.8927 17.8906 20.0504C17.8906 22.2082 19.6669 23.9573 21.8582 23.9573Z" fill="white"/>
<path d="M21.8583 15.4802C22.0455 15.4802 22.2326 15.4802 22.4198 15.517L21.8583 9.43555L21.2969 15.517C21.4466 15.4802 21.6337 15.4802 21.8583 15.4802Z" fill="white"/>
<path d="M19.9871 15.8488L16.4688 10.873L19.1262 16.3648C19.3883 16.1437 19.6877 15.9962 19.9871 15.8488Z" fill="white"/>
<path d="M24.5894 16.3646L27.2095 10.8359L23.7285 15.8485C24.028 15.996 24.3274 16.1803 24.5894 16.3646Z" fill="white"/>
<path d="M18.1144 17.3232L12.5 14.7432L17.5904 18.1709C17.7401 17.876 17.9273 17.5812 18.1144 17.3232Z" fill="white"/>
<path d="M32.5994 20.0504L26.4609 19.5713C26.4609 19.7187 26.4984 19.8661 26.4984 20.0504C26.4984 20.2347 26.4984 20.3822 26.4609 20.5664L32.5994 20.0504Z" fill="white"/>
<path d="M26.0881 18.2078L31.1786 14.7432L25.6016 17.36C25.7887 17.618 25.9759 17.9129 26.0881 18.2078Z" fill="white"/>
<path d="M23.6914 24.2155L27.2098 29.2281L24.5523 23.7363C24.2903 23.9206 23.9908 24.1049 23.6914 24.2155Z" fill="white"/>
<path d="M21.858 24.6208C21.6709 24.6208 21.5211 24.6208 21.334 24.584L21.858 30.6655L22.3446 24.6208C22.1574 24.584 22.0077 24.6208 21.858 24.6208Z" fill="white"/>
<path d="M25.5645 22.7413L31.1789 25.3213L26.0885 21.8936C25.9387 22.1884 25.7516 22.4833 25.5645 22.7413Z" fill="white"/>
<path d="M17.5904 21.8564L12.5 25.321L18.077 22.7042C17.8899 22.4462 17.7401 22.1513 17.5904 21.8564Z" fill="white"/>
<path d="M17.2166 20.0502C17.2166 19.8659 17.2166 19.7185 17.254 19.5342L11.0781 20.0502L17.2166 20.4925C17.2166 20.345 17.2166 20.1976 17.2166 20.0502Z" fill="white"/>
<path d="M19.0888 23.6992L16.4688 29.2278L19.9497 24.2152C19.6503 24.0678 19.3508 23.8835 19.0888 23.6992Z" fill="white"/>
</g>
<defs>
<clipPath id="clip0_128_2">
<rect width="166" height="38" fill="white"/>
</clipPath>
</defs>
</svg>
